<svg width="20" height="20" viewBox="0 0 20 20" fill="none" xmlns="http://www.w3.org/2000/svg">
<g id="instagram-logo">
<path id="Combined Shape" fill-rule="evenodd" clip-rule="evenodd" d="M5.26916 0H13.8247C16.7303 0 19.0942 2.36386 19.0941 5.26927V13.8248C19.0941 16.7302 16.7303 19.0941 13.8247 19.0941H5.26916C2.36375 19.0941 0 16.7303 0 13.8248V5.26927C0 2.36386 2.36375 0 5.26916 0ZM13.8248 17.3999C15.7962 17.3999 17.4001 15.7962 17.4001 13.8248H17.3999V5.26927C17.3999 3.298 15.7961 1.69412 13.8247 1.69412H5.26916C3.29788 1.69412 1.69412 3.298 1.69412 5.26927V13.8248C1.69412 15.7962 3.29788 17.4001 5.26916 17.3999H13.8248ZM4.62697 9.54726C4.62697 6.8343 6.83407 4.6272 9.54703 4.6272C12.26 4.6272 14.4671 6.8343 14.4671 9.54726C14.4671 12.2601 12.26 14.4671 9.54703 14.4671C6.83407 14.4671 4.62697 12.2601 4.62697 9.54726ZM6.32109 9.54714C6.32109 11.3259 7.76832 12.7729 9.54703 12.7729C11.3257 12.7729 12.773 11.3259 12.773 9.54714C12.773 7.76832 11.3259 6.3212 9.54703 6.3212C7.76821 6.3212 6.32109 7.76832 6.32109 9.54714ZM13.7959 3.55437C14.0264 3.32284 14.347 3.1907 14.6734 3.1907C15.001 3.1907 15.3217 3.32284 15.5521 3.55437C15.7836 3.78477 15.9158 4.10553 15.9158 4.43305C15.9158 4.75945 15.7836 5.08021 15.5521 5.31174C15.3206 5.54214 15.001 5.67541 14.6734 5.67541C14.347 5.67541 14.0263 5.54214 13.7959 5.31174C13.5643 5.08021 13.4311 4.75957 13.4311 4.43305C13.4311 4.10553 13.5642 3.78477 13.7959 3.55437Z" fill="white"/>
</g>
</svg>
