<svg width="20" height="20" viewBox="0 0 20 20" fill="none" xmlns="http://www.w3.org/2000/svg">
<g id="icons/fill/linkedin">
<path id="Shape" fill-rule="evenodd" clip-rule="evenodd" d="M4.97193 6.76685V19.2997H0.915766V6.76685H4.97193ZM5.23083 2.86971C5.23083 3.48971 5.05823 4.02114 4.62672 4.41971C4.19522 4.81828 3.63426 5.03971 2.94385 5.03971C2.25344 5.03971 1.69248 4.81828 1.30412 4.41971C0.872615 4.02114 0.700012 3.48971 0.700012 2.86971C0.700012 2.24971 0.872615 1.71828 1.30412 1.31971C1.73563 0.921136 2.29659 0.699707 2.987 0.699707C3.67741 0.699707 4.19522 0.921136 4.62672 1.31971C5.01508 1.71828 5.23083 2.24971 5.23083 2.86971ZM19.6 12.0811V19.2997H15.5438V12.5683C15.5438 11.6826 15.4144 11.0183 15.0692 10.4868C14.724 9.99971 14.2062 9.73399 13.5158 9.73399C12.998 9.73399 12.5665 9.91114 12.2212 10.1769C11.8329 10.4868 11.574 10.8411 11.4014 11.284C11.3151 11.5054 11.2719 11.8597 11.2719 12.3026V19.2997H7.21577C7.25892 15.934 7.25892 13.1883 7.25892 11.1069C7.25892 9.02542 7.25892 7.74114 7.25892 7.34256L7.21577 6.76685H11.2719V8.58256C11.4445 8.31685 11.574 8.05114 11.7466 7.87399C11.9192 7.65256 12.1781 7.43114 12.4801 7.20971C12.7391 6.98828 13.1274 6.76685 13.5158 6.63399C13.9473 6.50114 14.4219 6.45685 14.9397 6.45685C16.3637 6.45685 17.4856 6.94399 18.3486 7.87399C19.2117 8.84828 19.6 10.2654 19.6 12.0811Z" fill="white"/>
</g>
</svg>
