<svg width="20" height="14" viewBox="0 0 20 14" fill="none" xmlns="http://www.w3.org/2000/svg">
<g id="icons/fill/youtube">
<path id="Shape" fill-rule="evenodd" clip-rule="evenodd" d="M14.3395 7.0001C14.3395 6.73616 14.2252 6.54764 13.9967 6.43452L8.43616 2.96567C8.20764 2.81485 7.97913 2.81485 7.71252 2.96567C7.48401 3.07879 7.36975 3.26731 7.36975 3.56895V10.4312C7.36975 10.7329 7.48401 10.9214 7.71252 11.0345C7.82678 11.1099 7.94104 11.1476 8.0553 11.1476C8.20764 11.1476 8.3219 11.1099 8.43616 11.0345L13.9967 7.56567C14.2252 7.45256 14.3395 7.26403 14.3395 7.0001ZM19.9 7.0001C19.9 7.67879 19.9 8.24436 19.9 8.62141C19.9 8.99846 19.8619 9.48862 19.7858 10.0919C19.7477 10.6952 19.6715 11.223 19.5573 11.6755C19.443 12.2034 19.1764 12.6558 18.7955 12.9952C18.4147 13.3722 17.9576 13.5608 17.4625 13.6362C15.8248 13.787 13.4254 13.9001 10.15 13.9001C6.87463 13.9001 4.47522 13.787 2.83752 13.6362C2.34241 13.5608 1.88538 13.3722 1.50452 12.9952C1.12366 12.6558 0.857056 12.2034 0.742798 11.6755C0.62854 11.223 0.552368 10.6952 0.514282 10.0919C0.43811 9.48862 0.400024 8.99846 0.400024 8.62141C0.400024 8.24436 0.400024 7.67879 0.400024 7.0001C0.400024 6.32141 0.400024 5.75584 0.400024 5.37879C0.400024 5.00174 0.43811 4.51157 0.514282 3.90829C0.552368 3.30502 0.62854 2.77715 0.742798 2.32469C0.857056 1.79682 1.12366 1.34436 1.50452 1.00502C1.88538 0.627967 2.34241 0.439442 2.83752 0.364032C4.47522 0.213212 6.87463 0.100098 10.15 0.100098C13.4254 0.100098 15.8248 0.213212 17.4625 0.364032C17.9576 0.439442 18.4147 0.627967 18.7955 1.00502C19.1764 1.34436 19.443 1.79682 19.5573 2.32469C19.6715 2.77715 19.7477 3.30502 19.7858 3.90829C19.8619 4.51157 19.9 5.00174 19.9 5.37879C19.9 5.75584 19.9 6.32141 19.9 7.0001Z" fill="white"/>
</g>
</svg>
